<?xml version="1.0" encoding="UTF-8"?>
<svg version="1.1" xmlns="http://www.w3.org/2000/svg" viewBox="345 295 360 425" width="100%" height="100%">
<path d="M0 0 C60.29333919 -0.1209091 60.29333919 -0.1209091 85.59765625 -0.14648438 C91.37906927 -0.15235724 97.16048204 -0.15841847 102.94189453 -0.16479492 C104.02867636 -0.16598179 104.02867636 -0.16598179 105.13741338 -0.16719264 C116.80638912 -0.18021046 128.47532012 -0.20384516 140.14426941 -0.23145839 C152.13603547 -0.25959707 164.12777826 -0.27619407 176.11957598 -0.28226548 C182.84833358 -0.28599834 189.57698385 -0.29529014 196.30570984 -0.31719017 C202.64875273 -0.33766619 208.99165353 -0.34381141 215.33472633 -0.33932304 C217.65332119 -0.34014329 219.97192117 -0.34604222 222.29048729 -0.35761642 C234.90008076 -0.41743564 246.70357399 0.01262201 259 3 C259 3.99 259 4.98 259 6 C257.06213603 7.73517139 255.14691472 9.27040153 253.0625 10.8125 C251.77578465 11.79222657 250.49070142 12.7740994 249.20703125 13.7578125 C248.18150146 14.54140137 248.18150146 14.54140137 247.13525391 15.34082031 C243.44195467 18.210665 239.8493401 21.20127395 236.25 24.1875 C231.07903729 28.46557705 225.89139772 32.71543016 220.63671875 36.890625 C217.15592977 39.67525618 213.70475954 42.49568627 210.25 45.3125 C205.14624967 49.47255383 200.00761901 53.5797223 194.8125 57.625 C189.02677884 62.13388941 183.41041928 66.81866969 177.83984375 71.58984375 C176.90269531 72.38519531 175.96554687 73.18054688 175 74 C174.29285355 74.70034363 173.58570709 75.40068726 172.85713196 76.12225342 C169.07148561 78.61023248 165.82326826 78.53322954 161.44604492 78.45410156 C160.17210876 78.45497772 160.17210876 78.45497772 158.87243652 78.45587158 C156.07469327 78.45309236 153.2780251 78.42200842 150.48046875 78.390625 C148.53705935 78.38316203 146.5936424 78.37746936 144.65022278 78.37347412 C139.54219686 78.35822226 134.43462794 78.31894415 129.32678223 78.2746582 C124.11179791 78.23369593 118.89673955 78.21546105 113.68164062 78.1953125 C103.45422661 78.1524496 93.22715135 78.08420355 83 78 C83.0199855 79.07217773 83.03997101 80.14435547 83.06056213 81.24902344 C83.24328995 91.37092752 83.37805419 101.49249553 83.46630955 111.61567688 C83.51321002 116.81984381 83.57678327 122.02267567 83.67895508 127.22607422 C83.77700545 132.25123127 83.83061134 137.27510742 83.85389519 142.30114746 C83.87047933 144.21500816 83.9028671 146.12880148 83.95157051 148.04211426 C84.3178109 163.03089933 84.3178109 163.03089933 81.05404663 167.90768433 C78.79537761 169.9425055 76.62109876 171.47590205 74 173 C72.87175362 173.88121851 71.75564105 174.77834726 70.65625 175.6953125 C69.6146875 176.49710938 68.573125 177.29890625 67.5 178.125 C62.08714751 182.32369884 56.77402354 186.62836237 51.5 191 C46.38539145 195.23660838 41.24109488 199.4208174 36 203.5 C30.67745142 207.64327816 25.44926424 211.89059683 20.25 216.1875 C19.52997803 216.78191895 18.80995605 217.37633789 18.06811523 217.98876953 C14.18681647 221.19336092 14.18681647 221.19336092 10.30712891 224.39990234 C8.89641163 225.56332971 7.47974142 226.719529 6.0625 227.875 C5.31097656 228.49117187 4.55945313 229.10734375 3.78515625 229.7421875 C2 231 2 231 0 231 C0 154.77 0 78.54 0 0 Z " fill="#FFFFFF" transform="translate(354,303)"/>
<path d="M0 0 C18.18614114 4.9005918 35.08975315 26.58610413 44.06494141 41.91259766 C53.61622953 58.8221675 60.34013755 78.11423634 60.203125 97.70703125 C60.19692139 98.86227295 60.19071777 100.01751465 60.18432617 101.20776367 C60.1763501 102.08021729 60.16837402 102.9526709 60.16015625 103.8515625 C59.09908157 103.82713577 58.0380069 103.80270905 56.94477844 103.77754211 C46.89817425 103.55362383 36.85208227 103.38922206 26.80354023 103.28162861 C21.63838762 103.22444926 16.47526415 103.14702611 11.3112793 103.02172852 C6.31845157 102.90135532 1.32756279 102.83626336 -3.666605 102.80791283 C-5.56248286 102.78773664 -7.45826591 102.74833555 -9.35330772 102.68853188 C-19.22744796 102.38959119 -26.72944868 102.38919973 -34.36865234 109.2253418 C-36.25575927 111.05108804 -38.04193697 112.93482106 -39.83984375 114.8515625 C-41.0952036 115.91260673 -42.37076293 116.95109939 -43.6796875 117.9453125 C-45.892549 119.66425662 -48.10322421 121.3858393 -50.3125 123.109375 C-50.89660645 123.56344727 -51.48071289 124.01751953 -52.08251953 124.48535156 C-60.06799207 130.69356277 -68.00154647 136.95825137 -75.83984375 143.3515625 C-83.66345741 149.73289692 -91.5905591 155.97354945 -99.54882812 162.18554688 C-106.30757168 167.46461111 -113.01520456 172.7951446 -119.65234375 178.2265625 C-125.11283915 182.69315919 -130.65198084 187.03224067 -136.27734375 191.2890625 C-142.87800221 196.28685527 -149.29979639 201.46613672 -155.66894531 206.75488281 C-162.29344411 212.25024055 -169.04863343 217.56472182 -175.83984375 222.8515625 C-183.23039998 228.6162387 -190.57642589 234.42715206 -197.83984375 240.3515625 C-205.66345741 246.73289692 -213.5905591 252.97354945 -221.54882812 259.18554688 C-228.36599745 264.51024584 -235.13650635 269.88398197 -241.83984375 275.3515625 C-247.96384931 280.34661072 -254.13712541 285.27080512 -260.3671875 290.1328125 C-262.83003929 292.05517579 -265.27791366 293.99507515 -267.71875 295.9453125 C-268.67467041 296.70593994 -268.67467041 296.70593994 -269.64990234 297.48193359 C-270.87288971 298.45555241 -272.09340184 299.43229117 -273.31103516 300.41259766 C-275.8187644 302.40275393 -277.77522726 303.83002367 -280.83984375 304.8515625 C-281.12002657 297.20270424 -281.31189772 289.55517911 -281.4440918 281.90234375 C-281.49922409 279.30255697 -281.57415483 276.70310841 -281.66967773 274.10449219 C-282.48662984 251.29973277 -282.48662984 251.29973277 -278.52905273 246.01611328 C-275.74413974 243.47243907 -273.11922412 241.68969356 -269.83984375 239.8515625 C-268.04589645 238.42175835 -266.27168551 236.9664815 -264.52734375 235.4765625 C-263.17189453 234.38214844 -263.17189453 234.38214844 -261.7890625 233.265625 C-258.42615905 230.51294377 -255.13054806 227.68974481 -251.83984375 224.8515625 C-246.85063356 220.55161119 -241.79762452 216.34670218 -236.68359375 212.1953125 C-233.36297889 209.45854201 -230.09937593 206.660533 -226.83984375 203.8515625 C-222.71516171 200.29703089 -218.56776663 196.78364107 -214.33984375 193.3515625 C-208.93908203 188.96443348 -203.66516675 184.43932838 -198.390625 179.90234375 C-192.90367202 175.1831743 -187.38386383 170.50352152 -181.83984375 165.8515625 C-181.32196289 165.41618164 -180.80408203 164.98080078 -180.27050781 164.53222656 C-178.77676525 163.27974463 -177.27715847 162.03426676 -175.77734375 160.7890625 C-174.92011719 160.07621094 -174.06289063 159.36335937 -173.1796875 158.62890625 C-170.83984375 156.8515625 -170.83984375 156.8515625 -166.83984375 154.8515625 C-166.83984375 134.3915625 -166.83984375 113.9315625 -166.83984375 92.8515625 C-139.52734375 92.9765625 -139.52734375 92.9765625 -130.97143555 93.09423828 C-116.30959819 93.58761564 -116.30959819 93.58761564 -103.87890625 87.0546875 C-102.49931974 85.34662801 -101.15068467 83.61293193 -99.83984375 81.8515625 C-98.10686503 80.3484419 -96.33887393 78.88402305 -94.52734375 77.4765625 C-90.27857073 74.04369895 -86.10442543 70.53930791 -81.96484375 66.9765625 C-75.81974209 61.68885841 -69.64298501 56.44044158 -63.44873047 51.21044922 C-60.74412086 48.92610064 -58.04212248 46.63866742 -55.33984375 44.3515625 C-54.25652276 43.43488124 -53.17318943 42.51821457 -52.08984375 41.6015625 C-51.55359375 41.1478125 -51.01734375 40.6940625 -50.46484375 40.2265625 C-32.58984375 25.1015625 -32.58984375 25.1015625 -30.96337891 23.7253418 C-29.88490367 22.81277335 -28.80645297 21.90017591 -27.72802734 20.98754883 C-24.94557027 18.63293554 -22.16263081 16.27889598 -19.37890625 13.92578125 C-18.52727905 13.20503418 -18.52727905 13.20503418 -17.65844727 12.46972656 C-16.54365531 11.528011 -15.42700079 10.58849517 -14.30834961 9.65136719 C-12.04367547 7.74947221 -9.82098115 5.83358675 -7.6796875 3.79296875 C-3.50167381 -0.18303109 -3.50167381 -0.18303109 0 0 Z " fill="#FFFFFF" transform="translate(634.83984375,315.1484375)"/>
<path d="M0 0 C0.78365822 -0.0260423 1.56731644 -0.05208461 2.37472188 -0.07891607 C3.20914741 -0.1026059 4.04357293 -0.12629573 4.90328407 -0.15070343 C5.81057404 -0.17907492 6.71786401 -0.20744641 7.65264761 -0.23667765 C10.67639237 -0.3292335 13.7002761 -0.41526571 16.72423744 -0.50043488 C17.78672392 -0.531497 18.8492104 -0.56255913 19.94389343 -0.59456253 C40.92385493 -1.20445463 61.90673391 -1.5800003 82.89334106 -1.87081909 C85.5555689 -1.90865185 88.21778865 -1.94677996 90.87999916 -1.98578644 C91.87231552 -2.00028335 91.87231552 -2.00028335 92.88467868 -2.01507312 C102.90139364 -2.16527094 112.90943237 -2.43345555 122.92199135 -2.76508331 C134.588458 -3.15135043 146.24826351 -3.39676301 157.920982 -3.47813463 C164.0890895 -3.52579272 170.23861506 -3.63925035 176.40079308 -3.92205048 C212.89490486 -5.53227529 212.89490486 -5.53227529 222.96878338 2.02928543 C233.2656325 11.70487963 239.70083777 24.55010711 245.56097531 37.2159605 C246.53359218 39.15093108 247.61221851 40.88775699 248.84111023 42.66836548 C250.5743351 45.231987 250.5743351 45.231987 250.5743351 47.231987 C163.7843351 47.231987 76.9943351 47.231987 -12.4256649 47.231987 C-12.4256649 32.051987 -12.4256649 16.871987 -12.4256649 1.231987 C-3.42291811 0.10664365 -3.42291811 0.10664365 0 0 Z " fill="#FFFFFF" transform="translate(366.4256649017334,661.7680130004883)"/>
<path d="M0 0 C1.09859093 -0.0010952 1.09859093 -0.0010952 2.21937561 -0.00221252 C4.62244657 0.00125054 7.0235404 0.0400461 9.42626953 0.0793457 C11.09920188 0.0886785 12.77214795 0.09579241 14.44509888 0.1007843 C18.8348607 0.11981762 23.22378706 0.16888585 27.61322021 0.2243042 C32.09766337 0.27557644 36.58224236 0.2983153 41.06689453 0.32348633 C49.85633919 0.37700902 58.64510649 0.46227621 67.43408203 0.56762695 C67.50037121 5.77444691 67.03764578 10.45469241 65.80908203 15.50512695 C65.63086914 16.24239014 65.45265625 16.97965332 65.26904297 17.73925781 C57.47774139 48.64409491 39.37388772 78.58852397 11.99658203 95.81762695 C9.82144146 97.08901193 7.63422259 98.34001229 5.43408203 99.56762695 C4.49048828 100.10129883 3.54689453 100.6349707 2.57470703 101.18481445 C-17.06399275 111.65517097 -38.99248804 115.78779431 -61.06591797 115.63012695 C-62.87189453 115.62335938 -62.87189453 115.62335938 -64.71435547 115.61645508 C-67.6649287 115.60474645 -70.61539656 115.58834691 -73.56591797 115.56762695 C-73.82209139 108.04866506 -74.01688061 100.53016107 -74.13585186 93.00781441 C-74.19299339 89.51347651 -74.27030786 86.02214698 -74.39575195 82.52954102 C-74.5394524 78.50290142 -74.59172928 74.47936033 -74.64013672 70.45043945 C-74.69691086 69.21149933 -74.753685 67.9725592 -74.81217957 66.69607544 C-74.81595631 61.33002518 -74.6464262 57.92411698 -71.2328186 53.63861084 C-68.44938898 51.08259795 -65.60628863 48.80875409 -62.56591797 46.56762695 C-60.76843864 45.09552928 -58.97590421 43.61734839 -57.19091797 42.13012695 C-56.28599609 41.39922852 -55.38107422 40.66833008 -54.44873047 39.9152832 C-51.28575875 37.33947561 -48.17270685 34.7106137 -45.06591797 32.06762695 C-41.11957272 28.71297322 -37.1494914 25.39540391 -33.12841797 22.13012695 C-28.18451284 18.10686105 -23.33882864 13.97752339 -18.51147461 9.81591797 C-17.95580811 9.33695068 -17.4001416 8.8579834 -16.82763672 8.36450195 C-16.34254639 7.94523437 -15.85745605 7.5259668 -15.35766602 7.09399414 C-14.76638916 6.59029297 -14.1751123 6.0865918 -13.56591797 5.56762695 C-12.25955635 4.30046593 -12.25955635 4.30046593 -10.92680359 3.00770569 C-7.39719432 0.08701592 -4.59517671 -0.03867994 0 0 Z " fill="#FFFFFF" transform="translate(626.56591796875,438.432373046875)"/>
<path d="M0 0 C0 43.89 0 87.78 0 133 C-21.45 133 -42.9 133 -65 133 C-65.36097928 113.10603057 -65.36097928 113.10603057 -65.43945312 104.59765625 C-65.4931691 98.80116232 -65.55656921 93.005953 -65.67895508 87.21044922 C-65.77705696 82.53541041 -65.8306213 77.86174946 -65.85389519 73.1857605 C-65.87047049 71.40585645 -65.90284137 69.6260243 -65.95157051 67.84671021 C-66.31808792 53.90354732 -66.31808792 53.90354732 -63.03070068 49.1559906 C-60.78088645 47.1335059 -58.59018723 45.54961295 -56 44 C-55.11570312 43.26910156 -54.23140625 42.53820312 -53.3203125 41.78515625 C-52.59585937 41.21667969 -51.87140625 40.64820313 -51.125 40.0625 C-45.69948985 35.76905148 -40.34836314 31.38898161 -35 27 C-27.90181838 21.18164203 -20.78740108 15.38389456 -13.6574707 9.60449219 C-13.01124756 9.08016602 -12.36502441 8.55583984 -11.69921875 8.015625 C-11.0757959 7.51095703 -10.45237305 7.00628906 -9.81005859 6.48632812 C-8.06460533 5.05305061 -6.35549396 3.58346708 -4.64453125 2.109375 C-2 0 -2 0 0 0 Z " fill="#FFFFFF" transform="translate(532,512)"/>
<path d="M0 0 C0 18.81 0 37.62 0 57 C-26.73 57 -53.46 57 -81 57 C-75.38091743 51.38091743 -75.38091743 51.38091743 -71.98828125 49.125 C-71.24030273 48.62186279 -70.49232422 48.11872559 -69.72167969 47.6003418 C-68.52913574 46.80817261 -68.52913574 46.80817261 -67.3125 46 C-60.87923676 41.66488869 -54.5170242 37.25973561 -48.25 32.6875 C-40.3446185 26.92986921 -32.33507519 21.33145097 -24.29321289 15.76635742 C-18.13412002 11.50052453 -12.01038611 7.19261861 -5.98339844 2.74145508 C-2.21622072 0 -2.21622072 0 0 0 Z " fill="#FFFFFF" transform="translate(435,588)"/>
</svg>