<svg xmlns="http://www.w3.org/2000/svg" viewBox="0 0 1024 1024">
<path d="M0 0 C60.29 -0.12 60.29 -0.12 85.6 -0.15 C91.38 -0.15 97.16 -0.16 102.94 -0.16 C104.03 -0.17 104.03 -0.17 105.14 -0.17 C116.81 -0.18 128.48 -0.20 140.14 -0.23 C152.14 -0.26 164.13 -0.28 176.12 -0.28 C182.85 -0.29 189.58 -0.30 196.31 -0.32 C202.65 -0.34 208.99 -0.34 215.33 -0.34 C217.65 -0.34 219.97 -0.35 222.29 -0.36 C234.90 -0.42 246.70 0.01 259 3 C259 3.99 259 4.98 259 6 L83 78 C83.02 79.07 83.04 80.14 83.06 81.25 C83.24 91.37 83.38 101.49 83.47 111.62 L83 167.91 L2 231 C0 154.77 0 78.54 0 0 Z" fill="#2065A1" transform="translate(354,303)"/>
</svg>
